<svg xmlns="http://www.w3.org/2000/svg" width="687" height="105" viewBox="0 0 687 105"><path fill="#e1e3e8" d="M74.20 21Q80.70 21 85.85 23.70Q91 26.40 93.95 31.70Q96.90 37 96.90 44.50L96.90 44.50L96.90 77L85.60 77L85.60 46.20Q85.60 38.80 81.90 34.85Q78.20 30.90 71.80 30.90L71.80 30.90Q65.40 30.90 61.65 34.85Q57.90 38.80 57.90 46.20L57.90 46.20L57.90 77L46.60 77L46.60 46.20Q46.60 38.80 42.90 34.85Q39.20 30.90 32.80 30.90L32.80 30.90Q26.40 30.90 22.65 34.85Q18.90 38.80 18.90 46.20L18.90 46.20L18.90 77L7.50 77L7.50 21.90L18.90 21.90L18.90 28.20Q21.70 24.80 26 22.90Q30.30 21 35.20 21L35.20 21Q41.80 21 47 23.80Q52.20 26.60 55 31.90L55 31.90Q57.50 26.90 62.80 23.95Q68.10 21 74.20 21L74.20 21ZM133.60 21Q140 21 144.95 23.55Q149.90 26.10 152.70 29.90L152.70 29.90L152.70 21.90L164.20 21.90L164.20 77.90Q164.20 85.50 161 91.45Q157.80 97.40 151.75 100.80Q145.70 104.20 137.30 104.20L137.30 104.20Q126.10 104.20 118.70 98.95Q111.30 93.70 110.30 84.70L110.30 84.70L121.60 84.70Q122.90 89 127.15 91.65Q131.40 94.30 137.30 94.30L137.30 94.30Q144.20 94.30 148.45 90.10Q152.70 85.90 152.70 77.90L152.70 77.90L152.70 68.70Q149.80 72.60 144.85 75.25Q139.90 77.90 133.60 77.90L133.60 77.90Q126.40 77.90 120.45 74.25Q114.50 70.60 111.05 64.05Q107.60 57.50 107.60 49.20L107.60 49.20Q107.60 40.90 111.05 34.50Q114.50 28.10 120.45 24.55Q126.40 21 133.60 21L133.60 21ZM152.70 49.40Q152.70 43.70 150.35 39.50Q148 35.30 144.20 33.10Q140.40 30.90 136 30.90L136 30.90Q131.60 30.90 127.80 33.05Q124 35.20 121.65 39.35Q119.30 43.50 119.30 49.20L119.30 49.20Q119.30 54.90 121.65 59.20Q124 63.50 127.85 65.75Q131.70 68 136 68L136 68Q140.40 68 144.20 65.80Q148 63.60 150.35 59.35Q152.70 55.10 152.70 49.40L152.70 49.40ZM185 14.60Q181.90 14.60 179.80 12.50Q177.70 10.40 177.70 7.30L177.70 7.30Q177.70 4.20 179.80 2.10Q181.90 0 185 0L185 0Q188 0 190.10 2.10Q192.20 4.20 192.20 7.30L192.20 7.30Q192.20 10.40 190.10 12.50Q188 14.60 185 14.60L185 14.60ZM179.20 21.90L190.60 21.90L190.60 77L179.20 77L179.20 21.90ZM229.50 77.90Q221.70 77.90 215.40 74.35Q209.10 70.80 205.50 64.35Q201.90 57.90 201.90 49.40L201.90 49.40Q201.90 41 205.60 34.50Q209.30 28 215.70 24.50Q222.10 21 230 21L230 21Q237.90 21 244.30 24.50Q250.70 28 254.40 34.50Q258.10 41 258.10 49.40L258.10 49.40Q258.10 57.80 254.30 64.30Q250.50 70.80 243.95 74.35Q237.40 77.90 229.50 77.90L229.50 77.90ZM229.50 68Q233.90 68 237.75 65.90Q241.60 63.80 244 59.60Q246.40 55.40 246.40 49.40L246.40 49.40Q246.40 43.40 244.10 39.25Q241.80 35.10 238 33Q234.20 30.90 229.80 30.90L229.80 30.90Q225.40 30.90 221.65 33Q217.90 35.10 215.70 39.25Q213.50 43.40 213.50 49.40L213.50 49.40Q213.50 58.30 218.05 63.15Q222.60 68 229.50 68L229.50 68ZM280.80 29.90Q283.30 25.70 287.45 23.35Q291.60 21 297.30 21L297.30 21L297.30 32.80L294.40 32.80Q287.70 32.80 284.25 36.20Q280.80 39.60 280.80 48L280.80 48L280.80 77L269.40 77L269.40 21.90L280.80 21.90L280.80 29.90ZM304.00 49.20Q304.00 40.90 307.45 34.50Q310.90 28.10 316.85 24.55Q322.80 21 330.10 21L330.10 21Q335.50 21 340.75 23.35Q346.00 25.70 349.10 29.60L349.10 29.60L349.10 3L360.60 3L360.60 77L349.10 77L349.10 68.70Q346.30 72.70 341.35 75.30Q336.40 77.90 330.00 77.90L330.00 77.90Q322.80 77.90 316.85 74.25Q310.90 70.60 307.45 64.05Q304.00 57.50 304.00 49.20L304.00 49.20ZM349.10 49.40Q349.10 43.70 346.75 39.50Q344.40 35.30 340.60 33.10Q336.80 30.90 332.40 30.90L332.40 30.90Q328.00 30.90 324.20 33.05Q320.40 35.20 318.05 39.35Q315.70 43.50 315.70 49.20L315.70 49.20Q315.70 54.90 318.05 59.20Q320.40 63.50 324.25 65.75Q328.10 68 332.40 68L332.40 68Q336.80 68 340.60 65.80Q344.40 63.60 346.75 59.35Q349.10 55.10 349.10 49.40L349.10 49.40ZM371.80 49.20Q371.80 40.90 375.25 34.50Q378.70 28.10 384.65 24.55Q390.60 21 397.80 21L397.80 21Q404.30 21 409.15 23.55Q414 26.10 416.90 29.90L416.90 29.90L416.90 21.90L428.40 21.90L428.40 77L416.90 77L416.90 68.80Q414 72.70 409 75.30Q404.00 77.90 397.60 77.90L397.60 77.90Q390.50 77.90 384.60 74.25Q378.70 70.60 375.25 64.05Q371.80 57.50 371.80 49.20L371.80 49.20ZM416.90 49.40Q416.90 43.70 414.55 39.50Q412.20 35.30 408.40 33.10Q404.60 30.90 400.20 30.90L400.20 30.90Q395.80 30.90 392.00 33.05Q388.20 35.20 385.85 39.35Q383.50 43.50 383.50 49.20L383.50 49.20Q383.50 54.90 385.85 59.20Q388.20 63.50 392.05 65.75Q395.90 68 400.20 68L400.20 68Q404.60 68 408.40 65.80Q412.20 63.60 414.55 59.35Q416.90 55.10 416.90 49.40L416.90 49.40ZM471.20 21Q477.70 21 482.85 23.70Q488 26.40 490.90 31.70Q493.80 37 493.80 44.50L493.80 44.50L493.80 77L482.50 77L482.50 46.20Q482.50 38.80 478.80 34.85Q475.10 30.90 468.70 30.90L468.70 30.90Q462.30 30.90 458.55 34.85Q454.80 38.80 454.80 46.20L454.80 46.20L454.80 77L443.40 77L443.40 21.90L454.80 21.90L454.80 28.20Q457.60 24.80 461.95 22.90Q466.30 21 471.20 21L471.20 21ZM532.20 77.90Q524.40 77.90 518.10 74.35Q511.80 70.80 508.20 64.35Q504.60 57.90 504.60 49.40L504.60 49.40Q504.60 41 508.30 34.50Q512.00 28 518.40 24.50Q524.80 21 532.70 21L532.70 21Q540.60 21 547 24.50Q553.40 28 557.10 34.50Q560.80 41 560.80 49.40L560.80 49.40Q560.80 57.80 557 64.30Q553.20 70.80 546.65 74.35Q540.10 77.90 532.20 77.90L532.20 77.90ZM532.20 68Q536.60 68 540.45 65.90Q544.30 63.80 546.70 59.60Q549.10 55.40 549.10 49.40L549.10 49.40Q549.10 43.40 546.80 39.25Q544.50 35.10 540.70 33Q536.90 30.90 532.50 30.90L532.50 30.90Q528.10 30.90 524.35 33Q520.60 35.10 518.40 39.25Q516.20 43.40 516.20 49.40L516.20 49.40Q516.20 58.30 520.75 63.15Q525.30 68 532.20 68L532.20 68ZM584.80 57.20Q585.80 62.20 589.10 64.80Q592.40 67.40 598.00 67.40L598.00 67.40Q605.10 67.40 608.40 61.80Q611.70 56.20 611.70 42.70L611.70 42.70Q609.30 46.10 604.95 47.95Q600.60 49.80 595.50 49.80L595.50 49.80Q589.00 49.80 583.70 47.15Q578.40 44.50 575.35 39.25Q572.30 34 572.30 26.50L572.30 26.50Q572.30 15.50 578.75 8.95Q585.20 2.40 596.50 2.40L596.50 2.40Q610.10 2.40 615.85 11.45Q621.60 20.50 621.60 39.20L621.60 39.20Q621.60 52.10 619.45 60.30Q617.30 68.50 612.00 72.70Q606.70 76.90 597.30 76.90L597.30 76.90Q586.60 76.90 580.80 71.30Q575.00 65.70 574.30 57.20L574.30 57.20L584.80 57.20ZM597.50 40.20Q603.50 40.20 606.95 36.45Q610.40 32.70 610.40 26.50L610.40 26.50Q610.40 19.60 606.75 15.75Q603.10 11.90 596.80 11.90L596.80 11.90Q590.50 11.90 586.85 15.85Q583.20 19.80 583.20 26.20L583.20 26.20Q583.20 32.30 586.75 36.25Q590.30 40.20 597.50 40.20L597.50 40.20ZM681.10 3.90L681.10 13.90L647.60 13.90L647.60 33.80Q649.70 31 653.85 29.10Q658.00 27.20 662.70 27.20L662.70 27.20Q671.10 27.20 676.35 30.80Q681.60 34.40 683.85 39.90Q686.10 45.40 686.10 51.50L686.10 51.50Q686.10 58.90 683.25 64.65Q680.40 70.40 674.75 73.70Q669.10 77 660.90 77L660.90 77Q650.00 77 643.40 71.60Q636.80 66.20 635.50 57.30L635.50 57.30L646.60 57.30Q647.70 62 651.50 64.75Q655.30 67.50 661.00 67.50L661.00 67.50Q668.10 67.50 671.65 63.20Q675.20 58.90 675.20 51.80L675.20 51.80Q675.20 44.60 671.60 40.75Q668.00 36.90 661.00 36.90L661.00 36.90Q656.10 36.90 652.75 39.35Q649.40 41.80 647.90 46L647.90 46L637.10 46L637.10 3.90L681.10 3.90Z"></path></svg>