<svg xmlns="http://www.w3.org/2000/svg" width="256" height="256" viewBox="0 0 100 100"><rect width="100" height="100" rx="20" fill="#46494f"></rect><path fill="#e1e3e8" d="M41.28 31.32L47.87 31.32L47.87 68.85L41.71 68.85L41.71 43.14L30.26 68.85L26.00 68.85L14.49 43.14L14.49 68.85L8.34 68.85L8.34 31.32L14.98 31.32L28.16 60.75L41.28 31.32ZM90.53 42.12L83.13 42.12Q81.67 39.31 79.08 37.88Q76.49 36.45 73.09 36.45L73.09 36.45Q69.36 36.45 66.44 38.12Q63.53 39.79 61.88 42.87Q60.23 45.95 60.23 50L60.23 50Q60.23 54.05 61.88 57.16Q63.53 60.26 66.44 61.93Q69.36 63.61 73.09 63.61L73.09 63.61Q78.11 63.61 81.24 60.80Q84.37 57.99 85.07 53.19L85.07 53.19L70.98 53.19L70.98 48.27L91.66 48.27L91.66 53.08Q91.07 57.45 88.56 61.12Q86.05 64.80 82.02 66.98Q78.00 69.17 73.09 69.17L73.09 69.17Q67.79 69.17 63.42 66.71Q59.05 64.26 56.48 59.88Q53.91 55.51 53.91 50L53.91 50Q53.91 44.49 56.48 40.12Q59.05 35.74 63.45 33.29Q67.85 30.83 73.09 30.83L73.09 30.83Q79.08 30.83 83.75 33.77Q88.42 36.72 90.53 42.12L90.53 42.12Z"></path></svg>